<svg width="79" height="105" viewBox="0 0 79 105" fill="none" xmlns="http://www.w3.org/2000/svg">
<g clip-path="url(#clip0_76_592)">
<path d="M35.6439 1.12744C37.8998 -0.369629 40.8529 -0.369629 43.1088 1.12744L46.7591 3.52686C47.9896 4.32666 49.4252 4.71631 50.8812 4.63428L55.2494 4.36768C57.9564 4.20361 60.4994 5.68018 61.7093 8.1001L63.6781 12.0171C64.3343 13.3296 65.4007 14.3755 66.6927 15.0317L70.6507 17.021C73.0707 18.231 74.5472 20.7739 74.3832 23.481L74.1166 27.8491C74.0345 29.3052 74.4242 30.7612 75.224 31.9712L77.6439 35.6216C79.141 37.8774 79.141 40.8306 77.6439 43.0864L75.224 46.7573C74.4242 47.9878 74.0345 49.4233 74.1166 50.8794L74.3832 55.2476C74.5472 57.9546 73.0707 60.4976 70.6507 61.7075L66.7337 63.6763C65.4212 64.3325 64.3754 65.3989 63.7191 66.6909L61.7298 70.6489C60.5199 73.0689 57.9769 74.5454 55.2699 74.3814L50.9017 74.1148C49.4457 74.0327 47.9896 74.4224 46.7797 75.2222L43.1293 77.6421C40.8734 79.1392 37.9203 79.1392 35.6644 77.6421L31.9935 75.2222C30.7631 74.4224 29.3275 74.0327 27.8714 74.1148L23.5033 74.3814C20.7963 74.5454 18.2533 73.0689 17.0433 70.6489L15.0746 66.7319C14.4183 65.4194 13.3519 64.3735 12.0599 63.7173L8.10192 61.728C5.68199 60.5181 4.20543 57.9751 4.36949 55.2681L4.6361 50.8999C4.71813 49.4439 4.32848 47.9878 3.52867 46.7778L1.12926 43.1069C-0.367811 40.8511 -0.367811 37.898 1.12926 35.6421L3.52867 31.9917C4.32848 30.7612 4.71813 29.3257 4.6361 27.8696L4.36949 23.5015C4.20543 20.7944 5.68199 18.2515 8.10192 17.0415L12.0189 15.0728C13.3314 14.396 14.3978 13.3296 15.0541 12.0171L17.0228 8.1001C18.2328 5.68018 20.7757 4.20361 23.4828 4.36768L27.8509 4.63428C29.307 4.71631 30.763 4.32666 31.973 3.52686L35.6439 1.12744ZM55.7826 39.3745C55.7826 35.0233 54.0541 30.8503 50.9773 27.7735C47.9005 24.6968 43.7275 22.9683 39.3763 22.9683C35.0251 22.9683 30.8521 24.6968 27.7754 27.7735C24.6986 30.8503 22.9701 35.0233 22.9701 39.3745C22.9701 43.7257 24.6986 47.8987 27.7754 50.9755C30.8521 54.0523 35.0251 55.7808 39.3763 55.7808C43.7275 55.7808 47.9005 54.0523 50.9773 50.9755C54.0541 47.8987 55.7826 43.7257 55.7826 39.3745ZM0.267932 90.603L9.1068 69.5825C9.14781 69.603 9.16832 69.6235 9.18883 69.6646L11.1576 73.5816C13.557 78.3394 18.5404 81.231 23.8724 80.9233L28.2406 80.6567C28.2816 80.6567 28.3431 80.6567 28.3841 80.6978L32.0345 83.1177C33.0804 83.7944 34.1879 84.3276 35.3363 84.6968L27.6254 103.01C27.1537 104.138 26.1078 104.897 24.8978 105C23.6879 105.102 22.5189 104.548 21.8627 103.523L15.2591 93.4126L3.75426 95.1148C2.58531 95.2788 1.41637 94.8071 0.678088 93.8843C-0.0601933 92.9614 -0.203748 91.6899 0.247424 90.603H0.267932ZM51.1273 102.99L43.4164 84.6968C44.5648 84.3276 45.6722 83.8149 46.7181 83.1177L50.3685 80.6978C50.4095 80.6773 50.4506 80.6567 50.5121 80.6567L54.8802 80.9233C60.2123 81.231 65.1957 78.3394 67.5951 73.5816L69.5638 69.6646C69.5843 69.6235 69.6049 69.603 69.6459 69.5825L78.5052 90.603C78.9564 91.6899 78.7924 92.9409 78.0746 93.8843C77.3568 94.8276 76.1674 95.2993 74.9984 95.1148L63.4935 93.4126L56.89 103.502C56.2338 104.528 55.0648 105.082 53.8548 104.979C52.6449 104.876 51.599 104.097 51.1273 102.99Z" fill="#A78926"/>
</g>
<defs>
<clipPath id="clip0_76_592">
<rect width="78.75" height="105" fill="white"/>
</clipPath>
</defs>
</svg>
