<svg width="129" height="105" viewBox="0 0 129 105" fill="none" xmlns="http://www.w3.org/2000/svg">
<rect x="0.833333" y="0.833333" width="94.1667" height="70.8333" rx="5.83333" stroke="#B65C35" stroke-width="1.66667" stroke-dasharray="6.67 6.67"/>
<path fill-rule="evenodd" clip-rule="evenodd" d="M73.8333 46.875C73.3261 46.6663 72.7685 46.6124 72.2307 46.7201C71.6929 46.8279 71.1991 47.0924 70.8114 47.4804C70.4237 47.8683 70.1596 48.3624 70.0522 48.9003C69.9449 49.4381 69.9992 49.9957 70.2083 50.5028L89.6528 97.725C89.861 98.2309 90.214 98.6641 90.6675 98.9701C91.121 99.2762 91.6548 99.4415 92.2019 99.4454C92.749 99.4493 93.285 99.2915 93.7428 98.9918C94.2005 98.6922 94.5596 98.264 94.775 97.7611L102.233 80.3583C102.514 79.7031 103.036 79.1809 103.692 78.9L121.094 71.4416C121.597 71.2263 122.026 70.8672 122.325 70.4094C122.625 69.9517 122.783 69.4156 122.779 68.8685C122.775 68.3214 122.61 67.7877 122.303 67.3342C121.997 66.8807 121.564 66.5277 121.058 66.3194L73.8333 46.875Z" fill="#B65C35"/>
</svg>
